<svg version="1.1" viewBox="0 0 24 24" xmlns="http://www.w3.org/2000/svg">
 <path d="m6.7011 0.057793c-3.6631 0-6.6433 2.9829-6.6433 6.6493v10.639c0 3.6664 2.9802 6.6493 6.6433 6.6493h10.629c3.6631 0 6.6433-2.9829 6.6433-6.6493v-10.639c0-3.6664-2.9802-6.6493-6.6433-6.6493zm0 2.6597h10.629c2.1976 0 3.986 1.79 3.986 3.9896v10.639c0 2.1996-1.7884 3.9896-3.986 3.9896h-10.629c-2.1976 0-3.986-1.79-3.986-3.9896v-10.639c0-2.1996 1.7884-3.9896 3.986-3.9896zm11.958 1.3299a1.3287 1.3299 0 0 0-1.3287 1.3299 1.3287 1.3299 0 0 0 1.3287 1.3299 1.3287 1.3299 0 0 0 1.3287-1.3299 1.3287 1.3299 0 0 0-1.3287-1.3299zm-6.6433 1.3299c-3.6631 0-6.6433 2.9829-6.6433 6.6493 0 3.6664 2.9802 6.6493 6.6433 6.6493 3.6631 0 6.6433-2.9829 6.6433-6.6493 0-3.6664-2.9802-6.6493-6.6433-6.6493zm0 2.6597c2.1976 0 3.986 1.79 3.986 3.9896 0 2.1996-1.7884 3.9896-3.986 3.9896-2.1976 0-3.986-1.79-3.986-3.9896 0-2.1996 1.7884-3.9896 3.986-3.9896z" stroke-width="1.3292"/>
</svg>
